<svg id="svg" version="1.1" xmlns="http://www.w3.org/2000/svg" xmlns:xlink="http://www.w3.org/1999/xlink" width="400" height="400" viewBox="0, 0, 400,400"><g id="svgg"><path id="path0" d="M183.800 45.187 C 174.320 45.832,161.874 47.917,155.000 50.011 C 138.937 54.906,128.993 59.764,117.800 68.183 C 93.643 86.353,77.642 115.381,73.804 148.000 C 73.114 153.863,73.002 169.602,73.612 174.973 C 74.197 180.126,75.160 186.724,75.601 188.600 C 77.574 196.993,78.222 199.539,79.266 203.000 C 79.930 205.200,80.611 207.360,80.780 207.800 C 89.658 230.915,96.209 241.091,114.651 260.414 C 127.270 273.636,130.180 278.121,133.037 288.748 C 135.999 299.765,134.909 323.266,130.451 344.492 C 129.597 348.555,129.527 348.400,132.218 348.400 C 134.540 348.400,134.977 348.063,135.326 346.000 C 135.456 345.230,135.915 342.530,136.345 340.000 C 137.047 335.874,137.384 333.517,138.808 322.800 C 140.654 308.913,139.800 292.469,136.771 283.563 C 133.745 274.668,130.512 269.946,119.253 257.980 C 109.999 248.145,109.011 247.047,105.867 243.097 C 95.396 229.944,88.843 217.334,83.680 200.400 C 82.879 197.775,80.832 189.257,80.026 185.200 C 77.544 172.706,77.537 151.322,80.010 140.000 C 81.871 131.481,84.639 121.901,86.211 118.540 C 86.535 117.846,86.800 117.158,86.800 117.010 C 86.800 115.336,97.852 95.433,99.578 94.000 C 99.710 93.890,100.161 93.260,100.579 92.600 C 108.205 80.565,126.755 66.084,143.000 59.484 C 153.535 55.204,158.849 53.781,174.000 51.186 C 182.549 49.722,200.988 49.338,212.600 50.383 C 255.315 54.225,287.866 76.203,301.783 110.600 C 302.584 112.580,303.398 114.560,303.591 115.000 C 304.582 117.258,306.569 124.186,307.376 128.200 C 308.789 135.221,309.000 138.293,309.000 151.800 C 309.000 166.526,308.879 167.729,306.194 179.800 C 303.020 194.073,305.816 204.448,315.845 215.600 C 325.736 226.600,325.557 229.848,314.542 239.238 C 309.588 243.461,309.028 245.363,311.392 249.932 C 313.829 254.640,313.708 256.016,310.509 259.976 C 308.598 262.341,308.515 263.204,310.019 265.115 C 312.225 267.919,311.737 270.554,308.315 274.318 C 304.397 278.629,304.001 279.891,303.993 288.111 C 303.974 307.172,300.412 309.341,269.499 309.121 C 250.551 308.985,250.561 308.984,244.200 311.964 C 239.415 314.206,234.668 319.014,232.317 324.001 C 229.339 330.319,227.920 334.985,226.235 344.000 C 225.346 348.758,225.215 348.457,228.099 348.319 L 230.597 348.200 231.440 343.400 C 235.460 320.523,244.199 312.615,264.200 313.758 C 301.008 315.861,310.086 310.608,308.934 287.871 C 308.636 282.008,309.015 280.851,312.424 277.191 C 316.407 272.916,317.350 269.193,315.549 264.858 L 314.697 262.810 315.684 261.505 C 318.420 257.885,318.700 253.263,316.450 248.836 C 314.765 245.520,314.698 245.701,318.980 242.017 C 321.059 240.228,323.350 238.008,324.070 237.082 C 324.790 236.157,325.474 235.310,325.590 235.200 C 325.706 235.090,326.025 234.550,326.298 234.000 C 329.651 227.248,328.184 221.800,320.808 213.614 C 309.856 201.461,307.965 194.360,311.534 178.800 C 313.496 170.244,314.401 162.073,314.395 152.973 C 314.389 145.498,313.560 133.392,312.794 129.600 C 301.229 72.328,252.605 40.509,183.800 45.187 M143.045 112.041 C 105.624 117.503,94.045 168.698,125.338 190.331 C 144.732 203.738,167.952 199.807,189.425 179.481 L 193.449 175.672 197.425 179.675 C 215.438 197.817,237.359 202.982,256.200 193.524 C 284.149 179.494,287.877 139.377,263.000 120.358 C 243.347 105.332,216.491 109.938,195.419 131.948 C 193.413 134.043,194.053 134.316,188.747 129.100 C 175.143 115.726,159.023 109.709,143.045 112.041 M159.389 116.268 C 176.710 120.617,186.118 128.692,203.188 153.862 C 218.151 175.927,239.721 182.656,253.015 169.405 C 267.429 155.038,256.410 130.628,235.999 131.712 C 227.251 132.176,220.013 136.027,210.837 145.098 C 207.887 148.014,205.418 150.400,205.349 150.400 C 205.281 150.400,204.290 149.005,203.147 147.300 C 202.005 145.595,200.020 142.744,198.735 140.964 C 195.787 136.880,195.725 137.249,200.100 132.942 C 206.688 126.456,213.946 121.417,220.200 118.985 C 221.740 118.386,223.360 117.739,223.800 117.548 C 241.147 109.998,264.848 120.363,272.675 138.923 C 275.364 145.297,276.412 156.491,274.855 162.200 C 266.391 193.231,232.443 202.175,205.800 180.393 C 200.403 175.980,192.573 166.997,186.164 157.861 C 179.968 149.031,178.685 147.427,174.405 143.165 C 162.893 131.702,149.112 128.457,138.400 134.688 C 118.795 146.091,127.031 175.922,149.800 175.980 C 158.571 176.002,166.956 171.587,176.470 161.937 C 179.039 159.332,181.228 157.200,181.335 157.200 C 182.002 157.200,190.824 170.095,190.612 170.762 C 190.344 171.607,185.159 176.684,181.200 179.977 C 176.694 183.726,170.916 187.181,165.800 189.187 C 165.360 189.359,164.475 189.713,163.833 189.972 C 155.354 193.400,142.598 193.029,134.000 189.105 C 104.323 175.562,103.346 133.954,132.363 119.411 C 136.595 117.290,138.793 116.630,145.600 115.434 C 147.526 115.095,157.001 115.668,159.389 116.268 M157.800 138.541 C 163.747 140.462,170.695 145.636,175.588 151.785 C 178.200 155.068,178.241 154.902,173.700 159.525 C 159.982 173.490,145.943 176.256,136.534 166.847 C 122.492 152.805,138.011 132.148,157.800 138.541 M241.400 137.634 C 255.259 141.357,260.004 156.993,250.287 166.924 C 241.098 176.316,225.762 173.425,212.999 159.895 C 208.116 154.720,208.100 155.040,213.500 149.649 C 223.087 140.078,233.616 135.543,241.400 137.634 " stroke="none" fill="#282626" fill-rule="evenodd"></path><path id="path1" d="M0.000 200.000 L 0.000 400.000 200.000 400.000 L 400.000 400.000 400.000 200.000 L 400.000 0.000 200.000 0.000 L 0.000 0.000 0.000 200.000 M215.600 45.379 C 222.996 46.187,225.404 46.587,232.800 48.235 C 238.833 49.579,247.197 52.226,252.000 54.311 C 256.122 56.100,262.788 59.424,264.668 60.626 C 265.849 61.382,266.923 62.000,267.055 62.000 C 267.495 62.000,273.753 66.500,277.400 69.438 C 292.688 81.755,304.270 98.854,310.160 117.800 C 313.419 128.284,314.065 133.233,314.283 149.400 C 314.498 165.313,314.156 168.735,310.971 182.600 C 308.489 193.400,311.054 201.876,319.900 212.110 C 331.817 225.898,331.425 231.489,317.693 243.614 L 315.185 245.828 316.675 248.731 C 319.109 253.475,318.740 258.752,315.742 262.064 C 315.174 262.692,315.183 262.928,315.841 264.651 C 317.528 269.068,316.499 273.577,313.036 276.945 C 309.369 280.512,309.201 281.044,309.194 289.092 C 309.177 310.125,300.763 315.745,271.400 314.340 C 243.771 313.017,235.838 318.755,231.792 342.984 C 230.798 348.934,231.146 348.400,228.259 348.400 C 225.100 348.400,225.240 348.611,225.852 344.762 C 230.182 317.551,240.707 307.577,264.056 308.556 C 284.658 309.420,288.686 309.211,294.749 306.964 C 301.753 304.368,303.233 301.464,303.602 289.600 C 303.749 284.870,304.008 280.640,304.177 280.200 C 305.154 277.665,305.867 276.572,308.198 274.032 C 311.757 270.154,312.020 268.421,309.593 264.840 C 308.057 262.574,308.068 262.480,310.199 259.864 C 313.339 256.011,313.467 254.772,311.200 250.200 C 308.832 245.425,309.236 243.596,313.479 239.880 C 324.707 230.048,325.326 226.812,317.644 218.093 C 304.800 203.514,302.430 195.339,306.193 178.600 C 318.172 125.316,294.933 77.314,248.200 58.811 C 217.597 46.695,173.594 47.101,143.000 59.782 C 116.402 70.807,94.981 93.875,85.224 122.000 C 84.728 123.430,84.162 124.960,83.967 125.400 C 82.629 128.421,80.001 141.012,78.808 150.116 C 78.282 154.134,78.280 170.241,78.805 174.284 C 79.838 182.239,80.111 184.050,80.810 187.623 C 86.110 214.704,96.749 234.192,118.573 256.800 C 139.640 278.623,143.488 293.250,138.041 330.800 C 137.834 332.230,137.471 334.750,137.234 336.400 C 136.998 338.050,136.419 341.425,135.948 343.900 L 135.092 348.400 132.346 348.400 C 130.748 348.400,129.600 348.230,129.600 347.992 C 129.600 347.768,130.121 344.663,130.758 341.092 C 131.395 337.522,132.212 332.350,132.572 329.600 C 132.933 326.850,133.444 323.160,133.707 321.400 C 134.502 316.078,134.356 296.165,133.490 291.916 C 131.258 280.960,127.061 273.696,116.790 263.012 C 109.313 255.234,106.859 252.569,103.524 248.600 C 100.790 245.346,94.000 236.261,94.000 235.856 C 94.000 235.765,93.299 234.636,92.443 233.346 C 86.737 224.749,79.707 207.415,76.649 194.400 C 61.002 127.821,94.731 65.973,155.600 49.629 C 162.709 47.721,162.893 47.683,173.200 45.994 C 175.091 45.684,178.445 45.388,188.600 44.633 C 192.758 44.325,210.417 44.812,215.600 45.379 M160.000 112.358 C 170.644 114.763,180.079 120.169,189.200 129.089 C 194.200 133.979,193.030 133.862,197.159 129.890 C 217.768 110.068,241.323 105.734,260.438 118.248 C 288.056 136.329,285.961 178.353,256.683 193.563 C 254.658 194.616,252.640 195.586,252.200 195.719 C 244.161 198.148,239.201 198.730,232.289 198.055 C 229.600 197.792,226.860 197.413,226.200 197.211 C 225.540 197.010,223.663 196.452,222.029 195.972 C 214.293 193.699,204.898 187.670,197.608 180.300 L 193.415 176.061 189.804 179.531 C 168.772 199.738,145.673 203.929,125.964 191.112 C 113.554 183.042,107.457 171.236,107.420 155.200 C 107.364 131.342,120.788 115.623,144.800 111.426 C 147.069 111.030,156.744 111.623,160.000 112.358 M146.000 137.879 C 133.651 139.973,127.245 155.556,134.961 164.732 C 144.287 175.823,158.404 174.197,172.359 160.422 C 178.419 154.441,178.104 155.305,175.420 152.024 C 166.654 141.310,155.993 136.184,146.000 137.879 M232.514 137.996 C 226.365 139.300,217.147 145.535,211.174 152.431 C 208.730 155.251,208.601 154.847,213.619 160.148 C 226.178 173.415,240.927 175.890,250.415 166.324 C 262.608 154.030,250.116 134.263,232.514 137.996 " stroke="none" fill="#fbfbfb" fill-rule="evenodd"></path><path id="path2" d="M191.100 44.682 C 191.595 44.778,192.405 44.778,192.900 44.682 C 193.395 44.587,192.990 44.509,192.000 44.509 C 191.010 44.509,190.605 44.587,191.100 44.682 M202.505 44.687 C 203.114 44.779,204.014 44.777,204.505 44.682 C 204.997 44.587,204.500 44.511,203.400 44.514 C 202.300 44.517,201.897 44.595,202.505 44.687 M188.900 50.276 C 189.285 50.376,189.915 50.376,190.300 50.276 C 190.685 50.175,190.370 50.093,189.600 50.093 C 188.830 50.093,188.515 50.175,188.900 50.276 M285.200 76.600 C 285.946 77.370,286.647 78.000,286.757 78.000 C 286.867 78.000,286.346 77.370,285.600 76.600 C 284.854 75.830,284.153 75.200,284.043 75.200 C 283.933 75.200,284.454 75.830,285.200 76.600 M140.000 116.757 C 137.690 117.373,134.945 118.285,133.900 118.783 L 132.000 119.688 132.000 129.244 C 132.000 139.974,131.915 139.738,134.810 137.030 C 144.932 127.561,161.246 130.101,174.428 143.197 C 178.682 147.423,179.966 149.028,186.164 157.861 C 198.085 174.853,209.017 184.837,220.460 189.186 C 223.825 190.465,223.601 191.014,223.591 181.500 L 223.581 173.000 220.846 171.462 C 215.270 168.326,208.256 161.336,203.188 153.862 C 189.433 133.580,182.231 126.147,170.728 120.364 C 161.432 115.690,149.329 114.269,140.000 116.757 M219.600 119.158 C 213.151 121.961,206.427 126.713,200.100 132.942 C 195.725 137.249,195.787 136.880,198.735 140.964 C 200.020 142.744,202.005 145.595,203.147 147.300 C 205.658 151.047,204.608 151.311,210.459 145.459 C 215.353 140.565,218.025 138.372,221.700 136.231 L 223.600 135.124 223.600 126.562 C 223.600 116.714,223.909 117.286,219.600 119.158 M188.200 128.400 C 189.506 129.720,190.665 130.800,190.775 130.800 C 190.885 130.800,189.906 129.720,188.600 128.400 C 187.294 127.080,186.135 126.000,186.025 126.000 C 185.915 126.000,186.894 127.080,188.200 128.400 M198.000 129.000 C 197.028 129.990,196.323 130.800,196.433 130.800 C 196.543 130.800,197.428 129.990,198.400 129.000 C 199.372 128.010,200.077 127.200,199.967 127.200 C 199.857 127.200,198.972 128.010,198.000 129.000 M148.905 137.487 C 149.514 137.579,150.414 137.577,150.905 137.482 C 151.397 137.387,150.900 137.311,149.800 137.314 C 148.700 137.317,148.297 137.395,148.905 137.487 M236.300 137.482 C 236.795 137.578,237.605 137.578,238.100 137.482 C 238.595 137.387,238.190 137.309,237.200 137.309 C 236.210 137.309,235.805 137.387,236.300 137.482 M308.901 145.000 C 308.905 145.880,308.987 146.193,309.083 145.695 C 309.179 145.198,309.175 144.478,309.075 144.095 C 308.975 143.713,308.896 144.120,308.901 145.000 M279.737 154.600 C 279.739 156.360,279.809 157.030,279.893 156.089 C 279.978 155.149,279.977 153.709,279.891 152.889 C 279.805 152.070,279.736 152.840,279.737 154.600 M177.654 160.827 C 164.864 174.576,151.337 179.454,140.400 174.263 C 137.634 172.951,134.543 170.782,133.679 169.548 C 132.186 167.417,132.000 168.392,132.000 178.353 L 132.000 187.906 134.100 188.897 C 142.037 192.644,155.950 193.132,163.896 189.943 C 164.503 189.700,165.360 189.359,165.800 189.187 C 170.916 187.181,176.694 183.726,181.200 179.977 C 185.159 176.684,190.344 171.607,190.612 170.762 C 190.840 170.044,181.959 157.175,181.265 157.215 C 181.119 157.224,179.494 158.849,177.654 160.827 M214.783 161.700 C 215.764 162.745,216.619 163.600,216.683 163.600 C 216.984 163.600,216.666 163.241,214.900 161.583 L 213.000 159.800 214.783 161.700 M191.200 177.800 C 190.228 178.790,189.523 179.600,189.633 179.600 C 189.743 179.600,190.628 178.790,191.600 177.800 C 192.572 176.810,193.277 176.000,193.167 176.000 C 193.057 176.000,192.172 176.810,191.200 177.800 M147.712 198.295 C 148.764 198.377,150.384 198.376,151.312 198.292 C 152.240 198.208,151.380 198.141,149.400 198.142 C 147.420 198.143,146.660 198.212,147.712 198.295 M235.312 198.295 C 236.364 198.377,237.984 198.376,238.912 198.292 C 239.840 198.208,238.980 198.141,237.000 198.142 C 235.020 198.143,234.260 198.212,235.312 198.295 M309.693 246.000 C 309.693 246.770,309.775 247.085,309.876 246.700 C 309.976 246.315,309.976 245.685,309.876 245.300 C 309.775 244.915,309.693 245.230,309.693 246.000 M113.200 259.400 C 114.395 260.610,115.463 261.600,115.573 261.600 C 115.683 261.600,114.795 260.610,113.600 259.400 C 112.405 258.190,111.337 257.200,111.227 257.200 C 111.117 257.200,112.005 258.190,113.200 259.400 M316.493 269.200 C 316.493 269.970,316.575 270.285,316.676 269.900 C 316.776 269.515,316.776 268.885,316.676 268.500 C 316.575 268.115,316.493 268.430,316.493 269.200 M303.728 291.600 C 303.728 293.030,303.801 293.615,303.889 292.900 C 303.978 292.185,303.978 291.015,303.889 290.300 C 303.801 289.585,303.728 290.170,303.728 291.600 M134.551 306.000 C 134.551 308.530,134.616 309.565,134.696 308.300 C 134.775 307.035,134.775 304.965,134.696 303.700 C 134.616 302.435,134.551 303.470,134.551 306.000 M278.300 314.689 C 279.015 314.778,280.185 314.778,280.900 314.689 C 281.615 314.601,281.030 314.528,279.600 314.528 C 278.170 314.528,277.585 314.601,278.300 314.689 " stroke="none" fill="#dacd3a" fill-rule="evenodd"></path><path id="path3" d="M195.500 44.695 C 196.655 44.776,198.545 44.776,199.700 44.695 C 200.855 44.614,199.910 44.548,197.600 44.548 C 195.290 44.548,194.345 44.614,195.500 44.695 M185.900 45.082 C 186.395 45.178,187.205 45.178,187.700 45.082 C 188.195 44.987,187.790 44.909,186.800 44.909 C 185.810 44.909,185.405 44.987,185.900 45.082 M207.100 45.082 C 207.595 45.178,208.405 45.178,208.900 45.082 C 209.395 44.987,208.990 44.909,208.000 44.909 C 207.010 44.909,206.605 44.987,207.100 45.082 M217.300 45.876 C 217.685 45.976,218.315 45.976,218.700 45.876 C 219.085 45.775,218.770 45.693,218.000 45.693 C 217.230 45.693,216.915 45.775,217.300 45.876 M194.300 49.898 C 196.115 49.972,199.085 49.972,200.900 49.898 C 202.715 49.823,201.230 49.763,197.600 49.763 C 193.970 49.763,192.485 49.823,194.300 49.898 M185.705 50.287 C 186.314 50.379,187.214 50.377,187.705 50.282 C 188.197 50.187,187.700 50.111,186.600 50.114 C 185.500 50.117,185.097 50.195,185.705 50.287 M207.305 50.287 C 207.914 50.379,208.814 50.377,209.305 50.282 C 209.797 50.187,209.300 50.111,208.200 50.114 C 207.100 50.117,206.697 50.195,207.305 50.287 M175.700 51.076 C 176.085 51.176,176.715 51.176,177.100 51.076 C 177.485 50.975,177.170 50.893,176.400 50.893 C 175.630 50.893,175.315 50.975,175.700 51.076 M106.391 77.900 L 103.000 81.400 106.500 78.009 C 108.425 76.144,110.000 74.569,110.000 74.509 C 110.000 74.218,109.541 74.649,106.391 77.900 M281.600 80.600 C 283.460 82.470,285.072 84.000,285.182 84.000 C 285.292 84.000,283.860 82.470,282.000 80.600 C 280.140 78.730,278.528 77.200,278.418 77.200 C 278.308 77.200,279.740 78.730,281.600 80.600 M110.187 81.300 L 107.800 83.800 110.300 81.413 C 112.622 79.195,112.983 78.800,112.687 78.800 C 112.626 78.800,111.501 79.925,110.187 81.300 M147.911 111.493 C 148.851 111.578,150.291 111.577,151.111 111.491 C 151.930 111.405,151.160 111.336,149.400 111.337 C 147.640 111.339,146.970 111.409,147.911 111.493 M236.100 111.491 C 236.925 111.578,238.275 111.578,239.100 111.491 C 239.925 111.405,239.250 111.334,237.600 111.334 C 235.950 111.334,235.275 111.405,236.100 111.491 M154.900 111.876 C 155.285 111.976,155.915 111.976,156.300 111.876 C 156.685 111.775,156.370 111.693,155.600 111.693 C 154.830 111.693,154.515 111.775,154.900 111.876 M230.900 111.876 C 231.285 111.976,231.915 111.976,232.300 111.876 C 232.685 111.775,232.370 111.693,231.600 111.693 C 230.830 111.693,230.515 111.775,230.900 111.876 M147.911 115.493 C 148.851 115.578,150.291 115.577,151.111 115.491 C 151.930 115.405,151.160 115.336,149.400 115.337 C 147.640 115.339,146.970 115.409,147.911 115.493 M155.633 115.747 C 155.725 115.828,156.520 116.004,157.400 116.138 C 158.515 116.307,158.758 116.271,158.200 116.019 C 157.432 115.671,155.290 115.444,155.633 115.747 M130.162 120.553 C 106.340 134.088,104.668 170.004,127.154 185.157 C 129.718 186.885,133.754 189.167,132.700 188.292 C 131.818 187.561,131.608 168.997,132.478 168.707 C 132.779 168.607,132.490 167.965,131.696 166.974 C 125.941 159.791,126.010 147.354,131.844 140.421 C 132.583 139.542,132.785 139.038,132.473 138.845 C 132.155 138.648,131.982 135.671,131.907 129.092 L 131.800 119.622 130.162 120.553 M148.433 131.345 C 148.525 131.424,149.950 131.583,151.600 131.697 C 153.293 131.814,154.164 131.769,153.600 131.592 C 152.608 131.282,148.113 131.067,148.433 131.345 M136.693 135.414 C 135.872 135.972,135.200 136.515,135.200 136.620 C 135.200 136.725,135.920 136.335,136.800 135.753 C 138.197 134.828,138.670 134.400,138.293 134.400 C 138.234 134.400,137.514 134.856,136.693 135.414 M308.493 137.200 C 308.493 137.970,308.575 138.285,308.676 137.900 C 308.776 137.515,308.776 136.885,308.676 136.500 C 308.575 136.115,308.493 136.430,308.493 137.200 M313.693 137.200 C 313.693 137.970,313.775 138.285,313.876 137.900 C 313.976 137.515,313.976 136.885,313.876 136.500 C 313.775 136.115,313.693 136.430,313.693 137.200 M308.914 141.800 C 308.917 142.900,308.995 143.303,309.087 142.695 C 309.179 142.086,309.177 141.186,309.082 140.695 C 308.987 140.203,308.911 140.700,308.914 141.800 M314.114 142.200 C 314.117 143.300,314.195 143.703,314.287 143.095 C 314.379 142.486,314.377 141.586,314.282 141.095 C 314.187 140.603,314.111 141.100,314.114 142.200 M172.600 148.800 C 173.683 149.900,174.660 150.800,174.770 150.800 C 174.880 150.800,174.083 149.900,173.000 148.800 C 171.917 147.700,170.940 146.800,170.830 146.800 C 170.720 146.800,171.517 147.700,172.600 148.800 M213.387 149.700 L 211.000 152.200 213.500 149.813 C 214.875 148.499,216.000 147.374,216.000 147.313 C 216.000 147.017,215.605 147.378,213.387 149.700 M78.163 162.400 C 78.163 166.030,78.223 167.515,78.298 165.700 C 78.372 163.885,78.372 160.915,78.298 159.100 C 78.223 157.285,78.163 158.770,78.163 162.400 M72.958 162.200 C 72.958 165.280,73.021 166.487,73.097 164.882 C 73.173 163.278,73.173 160.758,73.096 159.282 C 73.019 157.807,72.957 159.120,72.958 162.200 M171.781 161.300 L 170.200 163.000 171.900 161.419 C 173.481 159.948,173.784 159.600,173.481 159.600 C 173.416 159.600,172.651 160.365,171.781 161.300 M308.893 162.400 C 308.893 163.170,308.975 163.485,309.076 163.100 C 309.176 162.715,309.176 162.085,309.076 161.700 C 308.975 161.315,308.893 161.630,308.893 162.400 M313.693 166.000 C 313.693 166.770,313.775 167.085,313.876 166.700 C 313.976 166.315,313.976 165.685,313.876 165.300 C 313.775 164.915,313.693 165.230,313.693 166.000 M249.775 167.300 L 248.600 168.600 249.900 167.425 C 250.615 166.779,251.200 166.194,251.200 166.125 C 251.200 165.816,250.870 166.088,249.775 167.300 M150.100 172.276 C 150.485 172.376,151.115 172.376,151.500 172.276 C 151.885 172.175,151.570 172.093,150.800 172.093 C 150.030 172.093,149.715 172.175,150.100 172.276 M235.907 172.290 C 236.626 172.379,237.706 172.377,238.307 172.286 C 238.908 172.195,238.320 172.122,237.000 172.124 C 235.680 172.126,235.188 172.201,235.907 172.290 M147.900 176.289 C 148.615 176.378,149.785 176.378,150.500 176.289 C 151.215 176.201,150.630 176.128,149.200 176.128 C 147.770 176.128,147.185 176.201,147.900 176.289 M195.200 177.800 C 195.946 178.570,196.647 179.200,196.757 179.200 C 196.867 179.200,196.346 178.570,195.600 177.800 C 194.854 177.030,194.153 176.400,194.043 176.400 C 193.933 176.400,194.454 177.030,195.200 177.800 M264.175 180.900 L 263.000 182.200 264.300 181.025 C 265.015 180.379,265.600 179.794,265.600 179.725 C 265.600 179.416,265.270 179.688,264.175 180.900 M199.583 182.100 C 201.241 183.866,201.600 184.184,201.600 183.883 C 201.600 183.819,200.745 182.964,199.700 181.983 L 197.800 180.200 199.583 182.100 M185.781 182.900 L 184.200 184.600 185.900 183.019 C 187.481 181.548,187.784 181.200,187.481 181.200 C 187.416 181.200,186.651 181.965,185.781 182.900 M116.800 182.925 C 116.800 182.994,117.385 183.579,118.100 184.225 L 119.400 185.400 118.225 184.100 C 117.130 182.888,116.800 182.616,116.800 182.925 M268.181 184.500 L 266.600 186.200 268.300 184.619 C 269.881 183.148,270.184 182.800,269.881 182.800 C 269.816 182.800,269.051 183.565,268.181 184.500 M309.731 190.200 C 309.733 191.740,309.805 192.321,309.892 191.491 C 309.979 190.661,309.977 189.401,309.889 188.691 C 309.800 187.981,309.729 188.660,309.731 190.200 M304.520 190.400 C 304.520 191.610,304.595 192.105,304.687 191.500 C 304.778 190.895,304.778 189.905,304.687 189.300 C 304.595 188.695,304.520 189.190,304.520 190.400 M147.500 192.295 C 148.655 192.376,150.545 192.376,151.700 192.295 C 152.855 192.214,151.910 192.148,149.600 192.148 C 147.290 192.148,146.345 192.214,147.500 192.295 M316.175 244.500 L 315.000 245.800 316.300 244.625 C 317.015 243.979,317.600 243.394,317.600 243.325 C 317.600 243.016,317.270 243.288,316.175 244.500 M115.400 254.000 C 116.483 255.100,117.460 256.000,117.570 256.000 C 117.680 256.000,116.883 255.100,115.800 254.000 C 114.717 252.900,113.740 252.000,113.630 252.000 C 113.520 252.000,114.317 252.900,115.400 254.000 M318.114 254.600 C 318.117 255.700,318.195 256.103,318.287 255.495 C 318.379 254.886,318.377 253.986,318.282 253.495 C 318.187 253.003,318.111 253.500,318.114 254.600 M312.893 254.800 C 312.893 255.570,312.975 255.885,313.076 255.500 C 313.176 255.115,313.176 254.485,313.076 254.100 C 312.975 253.715,312.893 254.030,312.893 254.800 M109.800 255.600 C 110.659 256.480,111.452 257.200,111.562 257.200 C 111.672 257.200,111.059 256.480,110.200 255.600 C 109.341 254.720,108.548 254.000,108.438 254.000 C 108.328 254.000,108.941 254.720,109.800 255.600 M122.400 261.400 C 123.595 262.610,124.663 263.600,124.773 263.600 C 124.883 263.600,123.995 262.610,122.800 261.400 C 121.605 260.190,120.537 259.200,120.427 259.200 C 120.317 259.200,121.205 260.190,122.400 261.400 M117.400 263.600 C 118.483 264.700,119.460 265.600,119.570 265.600 C 119.680 265.600,118.883 264.700,117.800 263.600 C 116.717 262.500,115.740 261.600,115.630 261.600 C 115.520 261.600,116.317 262.500,117.400 263.600 M308.581 273.700 L 307.000 275.400 308.700 273.819 C 310.281 272.348,310.584 272.000,310.281 272.000 C 310.216 272.000,309.451 272.765,308.581 273.700 M303.742 285.800 C 303.741 287.780,303.808 288.640,303.892 287.712 C 303.976 286.784,303.977 285.164,303.895 284.112 C 303.812 283.060,303.743 283.820,303.742 285.800 M308.944 286.000 C 308.944 288.090,309.012 288.945,309.094 287.900 C 309.176 286.855,309.176 285.145,309.094 284.100 C 309.012 283.055,308.944 283.910,308.944 286.000 M134.514 299.800 C 134.517 300.900,134.595 301.303,134.687 300.695 C 134.779 300.086,134.777 299.186,134.682 298.695 C 134.587 298.203,134.511 298.700,134.514 299.800 M139.728 300.800 C 139.728 302.230,139.801 302.815,139.889 302.100 C 139.978 301.385,139.978 300.215,139.889 299.500 C 139.801 298.785,139.728 299.370,139.728 300.800 M139.734 311.200 C 139.734 312.850,139.805 313.525,139.891 312.700 C 139.978 311.875,139.978 310.525,139.891 309.700 C 139.805 308.875,139.734 309.550,139.734 311.200 M259.100 308.696 C 260.475 308.774,262.725 308.774,264.100 308.696 C 265.475 308.618,264.350 308.554,261.600 308.554 C 258.850 308.554,257.725 308.618,259.100 308.696 M269.300 309.076 C 269.685 309.176,270.315 309.176,270.700 309.076 C 271.085 308.975,270.770 308.893,270.000 308.893 C 269.230 308.893,268.915 308.975,269.300 309.076 M134.520 312.400 C 134.520 313.610,134.595 314.105,134.687 313.500 C 134.778 312.895,134.778 311.905,134.687 311.300 C 134.595 310.695,134.520 311.190,134.520 312.400 M260.100 313.896 C 261.365 313.975,263.435 313.975,264.700 313.896 C 265.965 313.816,264.930 313.751,262.400 313.751 C 259.870 313.751,258.835 313.816,260.100 313.896 M237.600 316.200 C 236.628 317.190,235.923 318.000,236.033 318.000 C 236.143 318.000,237.028 317.190,238.000 316.200 C 238.972 315.210,239.677 314.400,239.567 314.400 C 239.457 314.400,238.572 315.210,237.600 316.200 " stroke="none" fill="#ec4769" fill-rule="evenodd"></path><path id="path4" d="M231.800 115.606 C 230.480 115.802,228.140 116.294,226.600 116.699 L 223.800 117.435 223.692 126.166 C 223.591 134.363,223.627 134.884,224.292 134.675 C 224.681 134.552,226.603 133.882,228.563 133.185 C 241.425 128.610,256.129 135.712,258.804 147.794 C 259.047 148.890,259.543 150.116,259.907 150.518 C 260.351 151.009,260.426 151.339,260.136 151.524 C 259.898 151.676,259.616 153.330,259.510 155.200 C 258.563 171.864,241.928 180.461,224.300 173.395 C 223.646 173.133,223.600 173.683,223.600 181.704 L 223.600 190.295 225.900 190.920 C 235.198 193.448,246.094 192.589,253.771 188.723 C 256.169 187.516,256.553 187.153,255.919 186.698 C 255.549 186.432,255.610 186.393,256.132 186.562 C 257.508 187.008,264.343 181.720,263.743 180.674 C 263.594 180.413,263.615 180.329,263.789 180.487 C 264.869 181.462,270.068 174.615,272.388 169.164 C 276.901 158.560,276.175 141.922,270.922 135.569 C 270.635 135.221,270.400 134.808,270.400 134.649 C 270.400 133.038,263.083 124.908,259.589 122.637 C 258.605 121.998,257.341 121.164,256.780 120.785 C 250.637 116.628,239.903 114.402,231.800 115.606 " stroke="none" fill="#1ebcf1" fill-rule="evenodd"></path></g></svg>